<?xml version="1.0" standalone="no"?>
<!DOCTYPE svg PUBLIC "-//W3C//DTD SVG 20010904//EN"
 "http://www.w3.org/TR/2001/REC-SVG-20010904/DTD/svg10.dtd">
<svg version="1.0" xmlns="http://www.w3.org/2000/svg"
 width="113.000000pt" height="63.000000pt" viewBox="0 0 113.000000 63.000000"
 preserveAspectRatio="xMidYMid meet">

<g transform="translate(0.000000,63.000000) scale(0.100000,-0.100000)"
fill="#ffff" stroke="none">
<path d="M427 624 c-4 -4 -7 -33 -7 -64 0 -44 5 -64 22 -85 20 -25 73 -55 98
-55 15 0 11 61 -6 90 -11 19 -14 20 -10 5 21 -86 22 -84 -25 -59 -32 16 -59
66 -59 108 0 33 14 40 54 26 52 -17 78 -52 84 -111 3 -32 8 -46 13 -38 10 19
-4 92 -25 123 -24 38 -120 79 -139 60z"/>
<path d="M626 519 c-36 -42 -33 -59 3 -20 16 17 34 31 40 31 6 0 11 5 11 10 0
20 -29 9 -54 -21z"/>
<path d="M618 440 l-33 -29 43 21 c44 21 44 21 90 2 70 -29 94 -76 89 -174 -4
-81 -30 -147 -84 -210 -21 -25 -23 -30 -8 -22 32 17 82 74 107 122 33 65 38
174 9 232 -43 89 -148 118 -213 58z"/>
<path d="M377 400 c-15 -12 -34 -35 -42 -50 -19 -37 -19 -125 0 -181 19 -53
76 -133 107 -150 20 -11 19 -8 -6 22 -37 43 -62 103 -75 176 -13 70 -2 125 31
160 20 22 29 24 76 21 34 -3 49 -1 43 5 -5 5 -31 12 -58 14 -39 4 -53 1 -76
-17z"/>
<path d="M23 343 c15 -4 17 -20 17 -158 0 -151 0 -154 -22 -158 -13 -2 43 -5
125 -6 l147 -1 0 58 -1 57 -19 -36 c-26 -50 -42 -60 -97 -62 l-48 -2 -3 73 -3
73 28 -3 c19 -2 33 -12 43 -33 l15 -30 3 37 c2 21 2 55 0 75 l-3 38 -15 -30
c-10 -21 -24 -31 -43 -33 l-28 -3 3 68 3 68 49 -1 c49 0 59 -6 93 -60 10 -16
12 -12 12 29 l1 47 -137 -1 c-76 -1 -130 -3 -120 -6z"/>
<path d="M435 340 c14 -5 39 -56 84 -164 35 -86 67 -156 71 -156 4 0 32 69 62
153 43 120 60 155 79 164 22 11 19 13 -31 11 -30 0 -45 -3 -32 -5 12 -2 22
-10 22 -16 0 -25 -63 -188 -70 -180 -6 6 -51 113 -76 178 -4 8 3 15 18 18 13
2 -15 5 -62 5 -54 0 -78 -2 -65 -8z"/>
<path d="M915 253 c-76 -198 -81 -208 -106 -220 -22 -12 -19 -13 31 -11 30 0
45 3 33 5 -26 5 -27 8 -12 52 10 29 13 31 64 31 51 0 54 -2 64 -31 15 -42 14
-47 -6 -52 -10 -3 20 -5 67 -4 47 0 76 2 65 4 -16 3 -34 38 -81 160 -34 87
-66 159 -71 160 -6 2 -28 -40 -48 -94z m50 -110 c6 -22 3 -23 -39 -23 -25 0
-46 2 -46 4 0 2 10 30 22 62 l22 58 17 -40 c9 -21 20 -49 24 -61z"/>
</g>
</svg>
