<svg width="537" height="683" viewBox="0 0 537 683" fill="none" xmlns="http://www.w3.org/2000/svg">
<path d="M247.8 2.13333C227.4 7.06666 207.8 22.4 199 40.2667L194.6 49.3333H167.8C130.733 49.3333 129.667 50 129.667 75.4667V89.3333H96.0667C71 89.3333 60.2 89.8667 53.9333 91.3333C28.3333 97.4667 6.99998 118.8 1.79998 143.733C0.733313 148.8 0.333313 220.533 0.333313 389.867C0.333313 624.267 0.333313 629.2 2.99998 637.6C9.66665 659.067 28.2 675.2 52.7333 680.667C61.2666 682.533 84.4667 682.667 273 682.4L483.667 682L492.6 678.533C509 672.133 523.4 660.4 529.667 648.133C536.733 634.133 536.333 648.4 536.333 389.333C536.333 127.6 536.733 143.467 528.733 126.667C524.067 116.933 508.733 101.733 498.733 96.9333C485 90.4 477.4 89.3333 440.733 89.3333H407V75.4667C407 59.2 405.933 55.6 400.067 52C396.067 49.6 393.267 49.3333 368.067 49.3333H340.467L336.2 40.2667C330.333 28.1333 316.2 14 304.067 8.13333C287.933 0.533326 264.733 -2.00001 247.8 2.13333ZM285.667 34.6667C299 41.4667 306.6 50.5333 310.6 64C315.267 80.2667 317.667 81.3333 349.533 81.3333H373.667V114V146.667H268.333H163V114.133V81.4667L187.533 81.0667C217 80.5333 217.667 80.2667 223.133 65.8667C228.2 52.2667 230.2 48.9333 237.667 42.2667C247.4 33.4667 255.667 30.5333 269 31.0667C276.867 31.4667 281.267 32.4 285.667 34.6667ZM129.933 144.267C130.333 165.6 130.6 167.6 133.267 171.467C134.867 173.733 137.933 176.4 139.933 177.2C142.733 178.267 177.133 178.667 269.933 178.4L396.067 178L399.667 174.667C406.067 168.8 407 164.533 407 141.867V121.067L441.4 121.6L475.667 122L483.267 125.733C491.4 129.733 495.933 134.267 500.733 143.2L503.667 148.667L504.067 385.333C504.333 569.067 504.067 623.333 502.733 628C500.733 635.6 492.333 644.133 483.533 647.467C477.267 649.867 469.933 650 271.8 650.4C48.6 650.8 57.8 651.067 45.8 643.467C39.5333 639.467 35.8 634.533 33.8 627.333C32.6 623.333 32.3333 562 32.6 385.333C33 157.2 33.1333 148.533 35.5333 144C41.9333 131.867 50.4666 124.933 61.8 122.8C65 122.133 81.5333 121.6 98.6 121.467L129.4 121.333L129.933 144.267Z" fill="#406343"/>
<path d="M187.667 229.867C185.533 230.933 171.933 242.933 157.667 256.533C143.4 270.133 131.267 281.333 130.867 281.333C130.333 281.333 125.267 276.4 119.533 270.267C106.467 256.533 103.8 254.667 96.6 254.667C86.7333 254.667 80.3333 263.467 82.3333 274.267C83 278.267 86.7333 282.8 102.6 298.8C113.267 309.6 123.667 319.2 125.933 320.133C133.8 323.333 137.4 320.933 173 287.2C205.4 256.533 211 250.267 211 244.667C211 240 206.333 232.933 201.533 230.4C196.2 227.6 193.133 227.467 187.667 229.867Z" fill="#406343"/>
<path d="M244.867 270.133C239.533 272.667 236.333 278.4 236.333 285.333C236.333 292.933 242.6 299.333 251.133 300.667C254.333 301.067 299 301.333 350.333 301.067C451.933 300.667 447.533 300.933 452.333 292.933C457.267 285.067 455.133 276.4 447.133 271.067L442.6 268H345.8C262.333 268 248.467 268.4 244.867 270.133Z" fill="#406343"/>
<path d="M186.333 360.267C184.867 361.067 171.933 373.067 157.533 386.933L131.4 412L119 399.333C106.067 386.133 100.733 383.067 93.8 384.667C85.6666 386.4 80.0666 396.133 82.2 404.8C83.1333 408.4 118.2 446 123.267 448.933C127.133 451.067 134.867 451.067 138.467 448.933C144.333 445.6 208.067 383.733 209.667 379.867C211.933 374.4 209.533 366.667 204.2 362.133C199.8 358.4 191.267 357.467 186.333 360.267Z" fill="#406343"/>
<path d="M244.867 400C233.933 404.4 233.533 423.067 244.333 428.667C250.2 431.733 439.8 431.733 446.2 428.667C454.2 424.8 457.267 414.933 453 406.667C448.733 398.4 452.733 398.667 345.4 398.8C291.667 398.8 246.333 399.333 244.867 400Z" fill="#406343"/>
<path d="M187.667 490C185.533 490.933 171.933 502.933 157.667 516.533C143.4 530.133 131.267 541.333 130.867 541.333C130.467 541.333 125.4 536.4 119.533 530.267C106.2 516.4 103.667 514.667 96.6 514.667C86.7333 514.667 80.3333 523.467 82.3333 534.267C83 538.267 86.7333 542.8 102.6 558.8C113.267 569.6 123.667 579.2 125.933 580.133C133.933 583.467 137.4 580.933 173 547.2C205.4 516.533 211 510.267 211 504.667C211 500 206.333 492.933 201.533 490.4C196.2 487.6 193.133 487.467 187.667 490Z" fill="#406343"/>
<path d="M246.2 529.333C244.733 529.867 241.8 532.267 239.933 534.667C232.467 543.467 236.867 556.8 248.067 560C255.533 562 438.2 561.733 444.333 559.6C446.867 558.667 450.2 556 451.933 553.467C457.267 545.467 455.4 536.667 447.133 531.067L442.6 528L345.8 528.133C292.6 528.133 247.8 528.667 246.2 529.333Z" fill="#406343"/>
</svg>
