<svg width="71" height="83" viewBox="0 0 71 83" fill="none" xmlns="http://www.w3.org/2000/svg">
<path d="M14.1667 0.640033C13.6333 1.17337 13.2333 5.04003 13.2333 9.17337C13.2333 15.04 13.9 17.7067 16.1667 20.5067C18.8333 23.84 25.9 27.84 29.2333 27.84C31.2333 27.84 30.7 19.7067 28.4333 15.84C26.9667 13.3067 26.5667 13.1734 27.1 15.1734C29.9 26.64 30.0333 26.3734 23.7667 23.04C19.5 20.9067 15.9 14.24 15.9 8.64003C15.9 4.24003 17.7667 3.3067 23.1 5.17337C30.0333 7.44003 33.5 12.1067 34.3 19.9734C34.7 24.24 35.3667 26.1067 36.0333 25.04C37.3667 22.5067 35.5 12.7734 32.7 8.64003C29.5 3.57337 16.7 -1.8933 14.1667 0.640033Z" fill="#5AF042"/>
<path d="M40.7 14.64C35.9 20.24 36.3 22.5067 41.1 17.3067C43.2333 15.04 45.6333 13.1734 46.4333 13.1734C47.2333 13.1734 47.9 12.5067 47.9 11.84C47.9 9.17337 44.0333 10.64 40.7 14.64Z" fill="#5AF042"/>
<path d="M39.6333 25.1734L35.2333 29.04L40.9667 26.24C46.8333 23.44 46.8333 23.44 52.9667 25.9734C62.3 29.84 65.5 36.1067 64.8333 49.1734C64.3 59.9734 60.8333 68.7734 53.6333 77.1734C50.8333 80.5067 50.5667 81.1734 52.5667 80.1067C56.8333 77.84 63.5 70.24 66.8333 63.84C71.2333 55.1734 71.9 40.64 68.0333 32.9067C62.3 21.04 48.3 17.1734 39.6333 25.1734Z" fill="#FF5757"/>
<path d="M7.5 30.5067C5.5 32.1067 2.96667 35.1734 1.9 37.1734C-0.633333 42.1067 -0.633333 53.84 1.9 61.3067C4.43333 68.3734 12.0333 79.04 16.1667 81.3067C18.8333 82.7734 18.7 82.3734 15.3667 78.3734C10.4333 72.64 7.1 64.64 5.36667 54.9067C3.63333 45.5734 5.1 38.24 9.5 33.5734C12.1667 30.64 13.3667 30.3734 19.6333 30.7734C24.1667 31.1734 26.1667 30.9067 25.3667 30.1067C24.7 29.44 21.2333 28.5067 17.6333 28.24C12.4333 27.7067 10.5667 28.1067 7.5 30.5067Z" fill="#FF5757"/>
</svg>
