<?xml version="1.0" standalone="no"?>
<!DOCTYPE svg PUBLIC "-//W3C//DTD SVG 20010904//EN"
 "http://www.w3.org/TR/2001/REC-SVG-20010904/DTD/svg10.dtd">
<svg version="1.0" xmlns="http://www.w3.org/2000/svg"
 width="512.000000pt" height="512.000000pt" viewBox="0 0 512.000000 512.000000"
 preserveAspectRatio="xMidYMid meet">

<g transform="translate(0.000000,512.000000) scale(0.100000,-0.100000)"
fill="#406343" stroke="none">
<path d="M204 4961 c-69 -42 -63 -146 10 -176 28 -12 93 -15 321 -15 157 0
285 -3 285 -7 0 -5 104 -735 231 -1623 155 -1090 235 -1623 245 -1638 36 -55
-46 -52 1673 -50 l1590 3 30 29 c51 49 41 130 -19 161 -25 13 -214 15 -1565
15 -844 0 -1535 1 -1535 3 0 1 -15 104 -34 230 -18 125 -30 229 -28 232 3 3
684 5 1513 5 l1508 0 27 23 c25 22 41 87 270 1083 268 1165 257 1104 190 1145
-30 18 -75 19 -1933 19 l-1903 0 -5 23 c-2 12 -19 123 -36 247 -17 124 -35
235 -40 247 -5 13 -23 32 -41 43 -31 19 -51 20 -378 20 -323 0 -347 -1 -376
-19z m4526 -781 c0 -6 -94 -422 -210 -925 -115 -504 -210 -918 -210 -920 0 -3
-661 -5 -1468 -5 l-1468 0 -128 898 c-71 493 -131 912 -134 930 l-5 32 1812 0
c1212 0 1811 -3 1811 -10z"/>
<path d="M1670 1234 c-148 -39 -284 -147 -353 -281 -86 -165 -86 -341 -1 -509
166 -330 619 -401 880 -138 184 187 215 474 75 693 -123 191 -382 293 -601
235z m211 -198 c320 -75 373 -504 81 -648 -60 -30 -75 -33 -157 -33 -76 0 -98
4 -145 26 -70 33 -136 99 -169 169 -22 47 -26 68 -26 150 0 78 5 103 23 141
50 101 127 165 232 193 69 19 92 19 161 2z"/>
<path d="M3936 1234 c-240 -58 -416 -283 -416 -531 0 -161 49 -282 160 -394
109 -111 234 -163 390 -163 157 0 274 48 385 159 116 115 165 234 165 397 0
356 -335 617 -684 532z m256 -210 c101 -35 196 -145 218 -251 25 -120 -14
-247 -102 -329 -75 -70 -125 -89 -238 -89 -85 0 -101 3 -153 29 -71 36 -130
99 -165 174 -23 48 -27 71 -27 142 0 73 4 93 28 142 66 135 204 215 346 201
29 -2 71 -11 93 -19z"/>
</g>
</svg>
