<svg width="147" height="83" viewBox="0 0 147 83" fill="none" xmlns="http://www.w3.org/2000/svg">
<path d="M54.7833 0.640025C54.2499 1.17336 53.8499 5.04003 53.8499 9.17336C53.8499 15.04 54.5166 17.7067 56.7833 20.5067C59.4499 23.84 66.5166 27.84 69.8499 27.84C71.8499 27.84 71.3166 19.7067 69.0499 15.84C67.5833 13.3067 67.1833 13.1734 67.7166 15.1734C70.5166 26.64 70.6499 26.3734 64.3833 23.04C60.1166 20.9067 56.5166 14.24 56.5166 8.64003C56.5166 4.24003 58.3833 3.30669 63.7166 5.17336C70.6499 7.44003 74.1166 12.1067 74.9166 19.9734C75.3166 24.24 75.9833 26.1067 76.6499 25.04C77.9833 22.5067 76.1166 12.7734 73.3166 8.64003C70.1166 3.57336 57.3166 -1.89331 54.7833 0.640025Z" fill="#5AF042"/>
<path d="M81.3166 14.64C76.5166 20.24 76.9166 22.5067 81.7166 17.3067C83.8499 15.04 86.2499 13.1734 87.0499 13.1734C87.8499 13.1734 88.5166 12.5067 88.5166 11.84C88.5166 9.17336 84.6499 10.64 81.3166 14.64Z" fill="#5AF042"/>
<path d="M80.2499 25.1734L75.8499 29.04L81.5833 26.24C87.4499 23.44 87.4499 23.44 93.5833 25.9734C102.917 29.84 106.117 36.1067 105.45 49.1734C104.917 59.9734 101.45 68.7734 94.2499 77.1734C91.4499 80.5067 91.1833 81.1734 93.1833 80.1067C97.4499 77.84 104.117 70.24 107.45 63.84C111.85 55.1734 112.517 40.64 108.65 32.9067C102.917 21.04 88.9166 17.1734 80.2499 25.1734Z" fill="#FF5757"/>
<path d="M48.1166 30.5067C46.1166 32.1067 43.5833 35.1734 42.5166 37.1734C39.9833 42.1067 39.9833 53.84 42.5166 61.3067C45.0499 68.3734 52.6499 79.04 56.7833 81.3067C59.4499 82.7734 59.3166 82.3734 55.9833 78.3734C51.0499 72.64 47.7166 64.64 45.9833 54.9067C44.2499 45.5734 45.7166 38.24 50.1166 33.5734C52.7833 30.64 53.9833 30.3734 60.2499 30.7734C64.7833 31.1734 66.7833 30.9067 65.9833 30.1067C65.3166 29.44 61.8499 28.5067 58.2499 28.24C53.0499 27.7067 51.1833 28.1067 48.1166 30.5067Z" fill="#FF5757"/>
<path d="M0.916611 38.1067C2.91661 38.64 3.18328 40.7734 3.18328 59.1734C3.18328 79.3067 3.18328 79.7067 0.249945 80.24C-1.48339 80.5067 5.98328 80.9067 16.9166 81.04L36.5166 81.1734V73.44L36.3833 65.84L33.8499 70.64C30.3833 77.3067 28.2499 78.64 20.9166 78.9067L14.5166 79.1734L14.1166 69.44L13.7166 59.7067L17.4499 60.1067C19.9833 60.3734 21.8499 61.7067 23.1833 64.5067L25.1833 68.5067L25.5833 63.5734C25.8499 60.7734 25.8499 56.24 25.5833 53.5734L25.1833 48.5067L23.1833 52.5067C21.8499 55.3067 19.9833 56.64 17.4499 56.9067L13.7166 57.3067L14.1166 48.24L14.5166 39.1734L21.0499 39.3067C27.5833 39.3067 28.9166 40.1067 33.4499 47.3067C34.7833 49.44 35.0499 48.9067 35.0499 43.44L35.1833 37.1734L16.9166 37.3067C6.78328 37.44 -0.416722 37.7067 0.916611 38.1067Z" fill="white"/>
<path d="M55.8499 38.5067C57.7166 39.1734 61.0499 45.9734 67.0499 60.3734C71.7166 71.84 75.9833 81.1734 76.5166 81.1734C77.0499 81.1734 80.7833 71.9734 84.7833 60.7734C90.5166 44.7734 92.7833 40.1067 95.3166 38.9067C98.2499 37.44 97.8499 37.1734 91.1833 37.44C87.1833 37.44 85.1833 37.84 86.9166 38.1067C88.5166 38.3734 89.8499 39.44 89.8499 40.24C89.8499 43.5734 81.4499 65.3067 80.5166 64.24C79.7166 63.44 73.7166 49.1734 70.3833 40.5067C69.8499 39.44 70.7833 38.5067 72.7833 38.1067C74.5166 37.84 70.7833 37.44 64.5166 37.44C57.3166 37.44 54.1166 37.7067 55.8499 38.5067Z" fill="white"/>
<path d="M119.85 50.1067C109.717 76.5067 109.05 77.84 105.717 79.44C102.783 81.04 103.183 81.1734 109.85 80.9067C113.85 80.9067 115.85 80.5067 114.25 80.24C110.783 79.5734 110.65 79.1734 112.65 73.3067C113.983 69.44 114.383 69.1734 121.183 69.1734C127.983 69.1734 128.383 69.44 129.717 73.3067C131.717 78.9067 131.583 79.5734 128.917 80.24C127.583 80.64 131.583 80.9067 137.85 80.7734C144.117 80.7734 147.983 80.5067 146.517 80.24C144.383 79.84 141.983 75.1734 135.717 58.9067C131.183 47.3067 126.917 37.7067 126.25 37.5734C125.45 37.3067 122.517 42.9067 119.85 50.1067ZM126.517 64.7734C127.317 67.7067 126.917 67.84 121.317 67.84C117.983 67.84 115.183 67.5734 115.183 67.3067C115.183 67.04 116.517 63.3067 118.117 59.04L121.05 51.3067L123.317 56.64C124.517 59.44 125.983 63.1734 126.517 64.7734Z" fill="white"/>
</svg>
